<?xml version="1.0" standalone="no"?>
<!DOCTYPE svg PUBLIC "-//W3C//DTD SVG 20010904//EN"
 "http://www.w3.org/TR/2001/REC-SVG-20010904/DTD/svg10.dtd">
<svg version="1.0" xmlns="http://www.w3.org/2000/svg"
 width="512.000000pt" height="512.000000pt" viewBox="0 0 512.000000 512.000000"
 preserveAspectRatio="xMidYMid meet">
<metadata>
Created by potrace 1.11, written by Peter Selinger 2001-2013
</metadata>
<g transform="translate(0.000000,512.000000) scale(0.100000,-0.100000)"
fill="#000000" stroke="none">
<path d="M1552 4376 c-541 -194 -991 -357 -999 -362 -14 -9 -13 -28 6 -194 12
-102 33 -279 46 -395 13 -115 33 -289 44 -385 12 -96 34 -294 51 -440 17 -146
41 -357 55 -470 13 -113 38 -333 56 -490 17 -157 37 -290 43 -297 6 -6 178
-103 381 -216 1001 -553 1317 -727 1321 -727 2 0 64 33 136 74 73 40 246 135
383 211 791 436 1171 648 1181 658 6 7 19 77 28 157 8 80 29 262 46 405 17
143 41 357 55 475 13 118 33 294 44 390 12 96 34 292 51 435 69 592 82 712 83
760 l2 50 -130 46 c-71 26 -133 44 -136 41 -3 -4 -102 -196 -219 -427 -117
-231 -248 -487 -290 -570 -197 -384 -715 -1398 -853 -1672 l-102 -203 -342 0
-342 0 -244 483 c-135 265 -337 665 -450 888 l-206 407 335 7 c190 4 339 4
343 -1 10 -11 38 -64 296 -559 109 -209 217 -416 241 -459 l42 -79 601 1202
c579 1157 600 1202 579 1210 -223 83 -1129 401 -1139 400 -8 -1 -456 -160
-997 -353z"/>
</g>
</svg>
