<?xml version="1.0" encoding="iso-8859-1"?>
<!-- Generator: Adobe Illustrator 19.0.0, SVG Export Plug-In . SVG Version: 6.00 Build 0)  -->
<svg version="1.1" id="Layer_1" xmlns="http://www.w3.org/2000/svg" xmlns:xlink="http://www.w3.org/1999/xlink" x="0px" y="0px"
	 viewBox="0 0 512 512" style="enable-background:new 0 0 512 512;" xml:space="preserve">
<circle style="fill:#0d47a1;" cx="256" cy="256" r="256"/>
<path style="fill:#0d47a1;" d="M511.914,262.684L366.792,117.562l-15.969,22.082l-37.935-37.933l-89.643,204.857l-78.35,87.526
	l117.819,117.819C398.774,508.409,508.426,398.748,511.914,262.684z"/>
<path style="fill:#324A5E;" d="M358.284,398.222H153.714c-6.347,0-11.493-5.146-11.493-11.493v-261.46
	c0-6.347,5.146-11.492,11.493-11.492h204.571c6.347,0,11.493,5.146,11.493,11.492v261.46
	C369.778,393.076,364.632,398.222,358.284,398.222z"/>
<path style="fill:#2B3B4E;" d="M358.284,113.778H254.85v284.444h103.434c6.347,0,11.493-5.146,11.493-11.493V125.271
	C369.778,118.924,364.632,113.778,358.284,113.778z"/>
<rect x="162.047" y="131.017" style="fill:#E9EFF4;" width="187.906" height="249.966"/>
<rect x="254.845" y="131.017" style="fill:#CFDBE6;" width="95.108" height="249.966"/>
<rect x="199.111" y="101.71" style="fill:#42a5f5" width="113.778" height="39.65"/>
<rect x="254.845" y="101.71" style="fill:#42a5f5" width="58.039" height="39.65"/>
<g>
	<rect x="175.407" y="175.407" style="fill:#C1321F;" width="18.963" height="18.963"/>
	<rect x="175.407" y="224.401" style="fill:#C1321F;" width="18.963" height="18.963"/>
	<rect x="175.407" y="273.377" style="fill:#C1321F;" width="18.963" height="18.963"/>
	<rect x="175.407" y="322.37" style="fill:#C1321F;" width="18.963" height="18.963"/>
</g>
<g>
	<rect x="211.178" y="186.182" style="fill:#D0D1D3;" width="113.778" height="5.172"/>
	<rect x="211.178" y="235.606" style="fill:#D0D1D3;" width="113.778" height="5.172"/>
	<rect x="211.178" y="285.013" style="fill:#D0D1D3;" width="113.778" height="5.172"/>
	<rect x="211.178" y="334.438" style="fill:#D0D1D3;" width="113.778" height="5.172"/>
</g>
<g>
	<rect x="254.845" y="186.182" style="fill:#A6A8AA;" width="70.104" height="5.172"/>
	<rect x="254.845" y="235.606" style="fill:#A6A8AA;" width="70.104" height="5.172"/>
	<rect x="254.845" y="285.013" style="fill:#A6A8AA;" width="70.104" height="5.172"/>
	<rect x="254.845" y="334.438" style="fill:#A6A8AA;" width="70.104" height="5.172"/>
</g>
<g>
</g>
<g>
</g>
<g>
</g>
<g>
</g>
<g>
</g>
<g>
</g>
<g>
</g>
<g>
</g>
<g>
</g>
<g>
</g>
<g>
</g>
<g>
</g>
<g>
</g>
<g>
</g>
<g>
</g>
</svg>
