<?xml version="1.0" encoding="utf-8"?>
<!-- Generator: Adobe Illustrator 23.0.0, SVG Export Plug-In . SVG Version: 6.00 Build 0)  -->
<svg version="1.1" id="Ebene_1" xmlns="http://www.w3.org/2000/svg" xmlns:xlink="http://www.w3.org/1999/xlink" x="0px" y="0px"
	 viewBox="0 0 564.9 589.6" style="enable-background:new 0 0 564.9 589.6;" xml:space="preserve">
<style type="text/css">
	.st0{fill:url(#SVGID_1_);}
	.st1{fill:#6C63FF;}
	.st2{fill:url(#SVGID_2_);}
	.st3{fill:#FFFFFF;}
	.st4{fill:none;stroke:#DBDBDB;stroke-width:2;stroke-miterlimit:10;}
	.st5{fill:#DBDBDB;}
	.st6{fill:url(#SVGID_3_);}
	.st7{fill:url(#SVGID_4_);}
	.st8{fill:url(#SVGID_5_);}
	.st9{fill:url(#SVGID_6_);}
	.st10{fill:#F6B9AD;}
	.st11{fill:#B98B82;}
	.st12{fill:#5989A1;}
	.st13{fill:#3D213C;}
	.st14{fill:#76B6D7;}
	.st15{fill:#47E6B1;}
	.st16{opacity:0.2;enable-background:new    ;}
</style>
<title>checklist</title>
<linearGradient id="SVGID_1_" gradientUnits="userSpaceOnUse" x1="334.995" y1="-53.34" x2="334.995" y2="186.58" gradientTransform="matrix(1 0 0 -1 0 358.22)">
	<stop  offset="0" style="stop-color:#808080;stop-opacity:0.25"/>
	<stop  offset="0.54" style="stop-color:#808080;stop-opacity:0.12"/>
	<stop  offset="1" style="stop-color:#808080;stop-opacity:0.1"/>
</linearGradient>
<polygon class="st0" points="564.9,171.6 105.1,248 105.1,411.6 564.9,404.1 "/>
<polygon class="st1" points="110.4,249.3 554.9,175.2 554.9,393.9 110.4,408 "/>
<linearGradient id="SVGID_2_" gradientUnits="userSpaceOnUse" x1="400.465" y1="173.02" x2="400.465" y2="358.22" gradientTransform="matrix(1 0 0 -1 0 358.22)">
	<stop  offset="0" style="stop-color:#808080;stop-opacity:0.25"/>
	<stop  offset="0.54" style="stop-color:#808080;stop-opacity:0.12"/>
	<stop  offset="1" style="stop-color:#808080;stop-opacity:0.1"/>
</linearGradient>
<polygon class="st2" points="560,0 240.9,90.8 240.9,185.2 560,116.8 "/>
<polygon class="st3" points="551.3,3.5 248,91.7 248,179.9 551.3,109.4 "/>
<path class="st4" d="M297.3,123.3c0,13.1-6.3,25.3-14.1,27.2s-13.8-7-13.8-19.9s6.2-25,13.8-27.1S297.3,110.2,297.3,123.3z"/>
<polygon class="st5" points="516.1,63.5 323.4,114.2 323.4,103.4 516.1,51.3 "/>
<polygon class="st5" points="516.1,88.2 323.4,138.9 323.4,128.1 516.1,75.9 "/>
<path class="st3" d="M198.6,320.8c0-24.8-11.2-43.5-24.7-41.6c-13.2,1.8-23.8,22.7-23.8,46.6s10.5,42.6,23.8,41.7
	C187.4,366.6,198.6,345.6,198.6,320.8z"/>
<linearGradient id="SVGID_3_" gradientUnits="userSpaceOnUse" x1="232.62" y1="75.845" x2="498.42" y2="75.845" gradientTransform="matrix(1 0 0 -1 0 358.22)">
	<stop  offset="0" style="stop-color:#DADADA"/>
	<stop  offset="1" style="stop-color:#FFFFFF"/>
</linearGradient>
<polygon class="st6" points="498.4,277.5 232.6,307 232.6,290.5 498.4,257.8 "/>
<linearGradient id="SVGID_4_" gradientUnits="userSpaceOnUse" x1="232.62" y1="33.515" x2="498.42" y2="33.515" gradientTransform="matrix(1 0 0 -1 0 358.22)">
	<stop  offset="0" style="stop-color:#DADADA"/>
	<stop  offset="1" style="stop-color:#FFFFFF"/>
</linearGradient>
<polygon class="st7" points="498.4,319.8 232.6,349.3 232.6,332.8 498.4,300.1 "/>
<linearGradient id="SVGID_5_" gradientUnits="userSpaceOnUse" x1="397.915" y1="-210.89" x2="397.915" y2="-85.84" gradientTransform="matrix(1 0 0 -1 0 358.22)">
	<stop  offset="0" style="stop-color:#808080;stop-opacity:0.25"/>
	<stop  offset="0.54" style="stop-color:#808080;stop-opacity:0.12"/>
	<stop  offset="1" style="stop-color:#808080;stop-opacity:0.1"/>
</linearGradient>
<polygon class="st8" points="553.2,447.8 239.1,444.1 239.1,539.7 556.7,569.1 "/>
<polygon class="st3" points="551.3,453.7 248,450.1 248,534.8 551.3,559.5 "/>
<path class="st4" d="M300.9,495.8c0,13.1-6.3,23.2-14.1,22.7s-13.8-11.3-13.8-24.2s6.2-23,13.8-22.7S300.9,482.7,300.9,495.8z"/>
<polygon class="st5" points="516.1,499.5 329.6,490.6 329.6,479.6 516.1,487.1 "/>
<polygon class="st5" points="516.1,524.2 329.6,515.3 329.6,504.2 516.1,511.8 "/>
<linearGradient id="SVGID_6_" gradientUnits="userSpaceOnUse" x1="392.584" y1="-252.41" x2="392.584" y2="110.0227" gradientTransform="matrix(1 0 0 -1 -317.55 337.22)">
	<stop  offset="0" style="stop-color:#808080;stop-opacity:0.25"/>
	<stop  offset="0.54" style="stop-color:#808080;stop-opacity:0.12"/>
	<stop  offset="1" style="stop-color:#808080;stop-opacity:0.1"/>
</linearGradient>
<path class="st9" d="M121.9,572.8l-9.5-6.4L97.4,509l3.1-3.3c0,0,0-18.5-4.3-30.7c2.7-1.7,4.3-2.8,4.3-2.8
	c-9.2-8.4-9.2-39.1-9.2-39.1s-3.9-23.7-11.7-45.6l14.8,3.7l21.5-47.5v-11.2l9.2-5.6c0,0-12.3-16.8-24.6,0c0,0,3.1,11.2,0,16.8
	s-12.3,25.2-12.3,25.2h-7.8l1.7-8.4H65.9c-0.8-1-1.6-1.9-2.4-2.8l12.3-25.2l-5.8-3.9l21.1-24l3.1-50.3c12.2-3.7,15-14.8,15.5-21.8
	c0.2-3.2-3.1-5.7-6.6-4.9C76.7,233.5,82,245.6,82,245.6l-9.2,47.5l-12.7,18.2c-1.5-8.3-7.6-15.2-15.8-18.7l6.9-7.9
	c0,0-15.7-3.8-30.6,1.3c-27.5,9.5-27.5,46,0,55.6c3.9,1.4,8,2,12.1,1.8v-2.8c0.4,0,0.8,0,1.1,0c-0.5,2.6-0.9,5.5-1.1,8.4l0,0
	c-6.1,0-6.1,30.8,3.1,36.3l-3.1,30.8V433c6.1,14,18.5,14,18.5,14l9.2,39.1c2.9,1.3,6.7,1.2,10.8,0.3l1.5,10.9
	c0,0-27.7,19.6-27.7,47.5l-1,1.8l-2.1-1.8l-18.5,14l24.6,28h24.6c6.1-14-18.5-16.8-18.5-16.8l-0.1-14.4l24.9-26.9
	c4.2,11.2,11.8,30,18,38l-2.8,0.5v22.4h52.3C161.9,570,121.9,572.8,121.9,572.8z"/>
<path class="st10" d="M40.3,334.5c0,0-6.1,25.6,0,29.3l18.3-11l-12.2-23.2L40.3,334.5z"/>
<path class="st11" d="M107.7,560.7l-16.2-67.3l-16.1,21.5c0,0,13.5,43.1,21.5,48.5L107.7,560.7z"/>
<path class="st10" d="M118.5,329c0,0-10.8-16.2-21.5,0c0,0,2.7,10.8,0,16.2s-10.8,24.2-10.8,24.2H61.9v13.5l29.6,8.1l18.9-45.8
	v-10.8L118.5,329z"/>
<polygon class="st12" points="80.8,361.3 75.4,391 53.9,385.6 53.9,361.3 "/>
<ellipse transform="matrix(0.9996 -2.937368e-02 2.937368e-02 0.9996 -9.3316 1.245)" class="st10" cx="37.7" cy="318.2" rx="24.2" ry="24.2"/>
<path class="st13" d="M32.3,315.5l21.5-26.9c0,0-13.8-3.7-26.8,1.3c-24.1,9.2-24.1,44.3,0,53.5c3.4,1.4,7,2,10.6,1.7V329h-8.1
	L32.3,315.5z"/>
<path class="st10" d="M91.6,259l-2.7,48.5l-21.5,26.9l-13.5-8.1l18.9-29.6l8.1-45.8c0,0-4.7-11.7,18.6-17.6c2.5-0.6,5,0.8,5.6,3.3
	c0.1,0.5,0.2,0.9,0.1,1.4C104.7,244.8,102.3,255.4,91.6,259z"/>
<path class="st10" d="M70,471.8l2.7,21.5c0,0-24.3,18.9-24.3,45.8l-2.7,5.4l8.1,8.1l43.1-51.2c0,0,0-29.6-8.1-37.7L70,471.8z"/>
<path class="st1" d="M56.4,549.5l0.1,13.8c0,0,21.5,2.7,16.2,16.2H51.2l-21.5-26.9l16.2-13.5L56.4,549.5z"/>
<path class="st1" d="M105.1,558l10.8,8.1c0,0,35-2.7,21.5,16.2H91.6v-21.5L105.1,558z"/>
<path class="st1" d="M97,469.1c0,0-24.2,18.9-35,13.5l-8.1-37.7c0,0-10.8,0-16.2-13.5v-16.2l51.2,16.2C88.9,431.4,88.9,461,97,469.1
	z"/>
<path class="st14" d="M75.4,334.4l-21.5-16.2c0,0-10.8,32.3-16.2,32.3s-5.4,29.6,2.7,35l-2.7,29.6l51.2,16.2c0,0-8.1-53.9-24.2-72.7
	L75.4,334.4z"/>
<polygon class="st15" points="270.9,127.7 276.6,126.9 282.3,132.5 288.8,120.3 295.8,120.3 282.3,137.3 "/>
<polygon class="st1" points="152.4,322.5 162.3,321 172.1,330.8 183.4,309.6 195.4,309.6 172.1,339.1 "/>
<polygon class="st16" points="152.4,322.5 162.3,321 172.1,330.8 183.4,309.6 195.4,309.6 172.1,339.1 "/>
</svg>
