<?xml version="1.0" encoding="iso-8859-1"?>
<!-- Generator: Adobe Illustrator 19.0.0, SVG Export Plug-In . SVG Version: 6.00 Build 0)  -->
<svg version="1.1" id="Layer_1" xmlns="http://www.w3.org/2000/svg" xmlns:xlink="http://www.w3.org/1999/xlink" x="0px" y="0px"
	 viewBox="0 0 496 496" style="enable-background:new 0 0 496 496;" xml:space="preserve">
<polygon style="fill:#FFFFFF;" points="376,392 376,40 24,40 24,496 268.8,496 "/>
<polyline style="fill:#EAEAEA;" points="376,392 376,40 24,40 "/>
<rect x="24" style="fill:#42a5f5;" width="352" height="56"/>
<polyline style="fill:#0d47a1;" points="24,0 376,0 376,56 "/>
<circle style="fill:#42a5f5;" cx="120.8" cy="178.4" r="59.2"/>
<path style="fill:#0d47a1;" d="M105.6,204.8l30.4,30.4c25.6-6.4,44-29.6,44-57.6c0-0.8,0-0.8,0-1.6l-23.2-22.4L105.6,204.8z"/>
<g>
	<path style="fill:#FFFFFF;" d="M122.4,192c2.4,2.4,2.4,7.2,0,9.6l-5.6,5.6c-2.4,2.4-7.2,2.4-9.6,0l-24-24c-2.4-2.4-2.4-7.2,0-9.6
		l5.6-5.6c2.4-2.4,7.2-2.4,9.6,0L122.4,192z"/>
	<path style="fill:#FFFFFF;" d="M143.2,150.4c2.4-2.4,7.2-2.4,9.6,0l5.6,5.6c2.4,2.4,2.4,7.2,0,9.6l-41.6,41.6
		c-2.4,2.4-7.2,2.4-9.6,0l-5.6-5.6c-2.4-2.4-2.4-7.2,0-9.6L143.2,150.4z"/>
</g>
<circle style="fill:#42a5f5;" cx="120.8" cy="353.6" r="59.2"/>
<path style="fill:#0d47a1;" d="M105.6,380l30.4,30.4c25.6-6.4,44-29.6,44-57.6c0-0.8,0-0.8,0-1.6l-23.2-22.4L105.6,380z"/>
<g>
	<path style="fill:#FFFFFF;" d="M122.4,366.4c2.4,2.4,2.4,7.2,0,9.6l-5.6,5.6c-2.4,2.4-7.2,2.4-9.6,0l-24-24c-2.4-2.4-2.4-7.2,0-9.6
		l5.6-5.6c2.4-2.4,7.2-2.4,9.6,0L122.4,366.4z"/>
	<path style="fill:#FFFFFF;" d="M143.2,324.8c2.4-2.4,7.2-2.4,9.6,0l5.6,5.6c2.4,2.4,2.4,7.2,0,9.6l-41.6,41.6
		c-2.4,2.4-7.2,2.4-9.6,0l-5.6-5.6c-2.4-2.4-2.4-7.2,0-9.6L143.2,324.8z"/>
</g>
<polygon style="fill:#C9C9C9;" points="376,392 272,392 272,492.8 "/>
<g>
	<path style="fill:#bbdefb;" d="M338.4,352c0,5.6-4.8,8-10.4,8H215.2c-5.6,0-10.4-2.4-10.4-8l0,0c0-5.6,4.8-8,10.4-8H328
		C333.6,344,338.4,346.4,338.4,352L338.4,352z"/>
	<path style="fill:#bbdefb;" d="M338.4,176c0,5.6-4.8,8-10.4,8H215.2c-5.6,0-10.4-2.4-10.4-8l0,0c0-5.6,4.8-8,10.4-8H328
		C333.6,168,338.4,170.4,338.4,176L338.4,176z"/>
	<path style="fill:#bbdefb;" d="M408,80v316c0,17.6,14.4,22.4,32,22.4s32-4.8,32-22.4V80H408z"/>
</g>
<path style="fill:#0d47a1;" d="M432,80v316c0,17.6,4.8,22.4,12,22.4s12-4.8,12-22.4V80H432z"/>
<path style="fill:#2962ff;" d="M472,72V40.8c0-17.6-14.4-22.4-32-22.4s-32,4.8-32,22.4V72H472z"/>
<path style="fill:#2962ff;" d="M472,72V40.8c0-17.6-14.4-22.4-32-22.4"/>
<polygon style="fill:#EADCA2;" points="408,404.8 440,464 472,404.8 "/>
<polygon style="fill:#D1C593;" points="440,404.8 440,464 472,404.8 "/>
<polygon style="fill:#44390A;" points="426.4,437.6 440,464 453.6,437.6 "/>
<g>
</g>
<g>
</g>
<g>
</g>
<g>
</g>
<g>
</g>
<g>
</g>
<g>
</g>
<g>
</g>
<g>
</g>
<g>
</g>
<g>
</g>
<g>
</g>
<g>
</g>
<g>
</g>
<g>
</g>
</svg>
